  <svg width="30" height="35" viewBox="0 0 30 35" fill="none" xmlns="http://www.w3.org/2000/svg">
    <path d="M14.7403 1.11726L14.7372 1.11821C13.2522 1.57707 11.836 3.39621 11.4759 5.97866L11.4757 5.97989C11.3435 6.91902 11.4721 7.91556 11.7819 8.73973C12.1016 9.59024 12.5531 10.1072 12.9388 10.297L12.9388 10.2969L12.9445 10.2998C13.4075 10.5313 14.1602 10.5377 14.7952 10.2293C15.4657 9.89727 16.3578 9.01211 16.7854 8.19467C18.2265 5.42595 17.8806 2.70172 16.5215 1.47518L16.5214 1.47506C16.2256 1.20802 15.9625 1.08012 15.7148 1.02889C15.4642 0.977069 15.1534 0.988145 14.7403 1.11726Z" stroke="#fff" stroke-width="2"/>
    <path d="M20.2014 9.99216L20.2005 9.99392C19.8399 10.7244 19.7115 11.2857 19.7115 12.2337C19.7115 12.7046 19.7231 12.8746 19.749 12.9984C19.7707 13.1021 19.8102 13.212 19.9747 13.5412L19.9748 13.5412L19.9792 13.5503C20.2583 14.1229 20.4837 14.3402 20.6938 14.4514C20.9256 14.5741 21.307 14.6574 22.0829 14.6108L22.0828 14.6108L22.0902 14.6104C22.5012 14.5888 22.6844 14.5645 22.8513 14.5194C23.0287 14.4714 23.2321 14.388 23.6682 14.1811C24.0443 14.0008 24.2678 13.8712 24.4787 13.7132C24.6993 13.548 24.9355 13.33 25.3201 12.9399L25.3201 12.9398L25.3251 12.9348C26.1999 12.0601 26.6291 11.3903 27.1198 10.0918L27.1204 10.0904C27.235 9.78861 27.3137 9.33526 27.3222 8.83572C27.3307 8.33822 27.2679 7.88732 27.1663 7.58764C27.08 7.34473 26.8872 7.04483 26.6272 6.78375C26.3558 6.51127 26.1137 6.38272 25.9944 6.35335L25.9944 6.3534L25.984 6.35072C25.4349 6.2093 24.6547 6.23375 24.09 6.41315C22.6083 6.88887 21.0383 8.28851 20.2014 9.99216Z" stroke="#fff" stroke-width="2"/>
    <path d="M3.87572 15.1094L3.87572 15.1094L3.87789 15.1103C4.42264 15.3175 5.37837 15.1094 6.05967 14.3425C6.89287 13.3989 7.37302 12.0804 7.37302 10.5571C7.37302 9.24063 7.02627 8.14606 6.52037 7.41311C6.01825 6.68563 5.40752 6.36444 4.80752 6.37107L4.80752 6.37113H4.79647C4.54432 6.37113 4.19722 6.42662 4.0811 6.46259C3.74974 6.58399 3.35005 6.88649 2.96069 7.41953C2.57362 7.94946 2.23711 8.6544 2.01886 9.47224C1.94353 9.75857 1.88398 10.306 1.87328 10.9183C1.86253 11.5342 1.90388 12.0671 1.96779 12.3315C2.11763 12.9388 2.43633 13.5958 2.83019 14.1393C3.24286 14.7087 3.64002 15.0204 3.87572 15.1094Z" stroke="#fff" stroke-width="2"/>
    <path d="M9.80987 17.3128L9.80879 17.313C8.45813 17.5185 6.75274 18.2343 4.98582 19.4229L4.98338 19.4246C4.01251 20.0736 3.07638 20.8594 2.3531 21.5971C1.99166 21.9658 1.69443 22.3111 1.47582 22.6107C1.2482 22.9226 1.14637 23.1301 1.11541 23.2302C0.76838 24.3967 1.21894 25.4158 2.21479 25.9137C2.82622 26.2194 3.61177 26.4367 5.21826 26.6677L5.22101 26.6681C6.91784 26.917 7.89491 27.1314 8.84501 27.5114L8.84502 27.5114L8.85284 27.5146C9.60198 27.8216 10.1993 28.1438 10.8357 28.6792C11.4454 29.192 12.0668 29.8808 12.8956 30.8721L12.8983 30.8753C13.2389 31.2863 13.5949 31.6907 13.8907 32.0078C14.039 32.1667 14.1671 32.2984 14.2675 32.3957C14.3615 32.4869 14.4019 32.5191 14.4014 32.5198C14.4014 32.5199 14.4001 32.5191 14.3978 32.5176L14.4012 32.5198L14.4091 32.5253C15.5032 33.2856 16.6352 33.1608 17.0705 32.7584C17.4159 32.4369 17.7486 31.8353 17.9558 30.8681C18.1604 29.9137 18.2235 28.6888 18.1059 27.2352L18.1057 27.2321C17.8538 23.9902 17.4794 22.4399 16.616 20.6618L16.6156 20.661C16.0039 19.3981 15.2518 18.608 14.2027 18.0602L14.1986 18.0581C12.9907 17.4203 11.1286 17.1107 9.80987 17.3128Z" stroke="#fff" stroke-width="2"/>
    <path d="M23.0437 19.4641L23.0429 19.4649C21.8769 20.6411 21.5239 21.4196 21.4645 22.407C21.434 22.9423 21.4665 23.2529 21.5318 23.4747C21.5914 23.6773 21.6968 23.8695 21.9291 24.1321C22.077 24.2977 22.1707 24.3758 22.2484 24.4268C22.3259 24.4776 22.4286 24.5286 22.6266 24.5964C23.5809 24.9052 24.7458 24.7625 25.875 24.1768C27.0008 23.5929 28.0161 22.6031 28.6344 21.3573C28.8708 20.8785 28.9293 20.7403 28.9595 20.6121C28.9895 20.4846 29 20.3293 29 19.7891C29 19.2784 28.9882 19.0984 28.9654 18.9858C28.9515 18.9172 28.9327 18.8567 28.792 18.601C28.7333 18.4983 28.6443 18.3726 28.5458 18.2565C28.4972 18.1992 28.4518 18.1508 28.4135 18.1136C28.3863 18.0872 28.3681 18.0718 28.3594 18.0647C27.7983 17.7096 26.8221 17.5495 25.8404 17.7775C24.8646 18.0179 23.962 18.5358 23.0437 19.4641Z" stroke="#fff" stroke-width="2"/>
  </svg>
