<svg width="63" height="41" viewBox="0 0 63 41" fill="none" xmlns="http://www.w3.org/2000/svg">
    <path d="M29.7724 1.34372C29.4587 1.87054 26.8443 8.50847 23.9162 16.3054C19.7332 27.2633 18.6875 31.1617 19.2104 33.9012L19.8378 37.4836H12.7267C4.67441 37.4836 2.26918 36.5353 3.31493 33.7958C3.94238 32.0047 5.51101 32.0047 13.6679 33.5851C14.3999 33.6905 14.9228 33.0583 14.9228 32.2154C14.9228 31.1617 13.145 30.3188 9.38029 29.6866C4.36068 28.8437 3.52408 28.9491 1.64173 30.951C-1.1818 33.6905 -0.240628 38.2211 3.52408 39.5909C6.97506 40.9606 26.0077 40.9606 27.9947 39.5909C29.3541 38.6426 29.3541 38.4319 27.9947 37.4836C27.1581 36.9568 25.7986 36.4299 25.0666 36.4299C24.3345 36.4299 23.2888 35.2709 22.6613 33.9012C21.6156 31.7939 22.243 29.2652 26.5306 18.0966C31.4457 4.82073 31.5502 4.82073 33.8509 6.40119C36.9881 8.40311 44.0992 8.40311 47.2365 6.40119C49.5372 4.82073 49.6417 4.82073 54.5568 17.9912C57.5894 25.8935 59.2626 31.8993 58.8443 33.1637C58.5306 34.3227 56.5437 35.7978 54.5568 36.4299C51.3149 37.5889 50.5829 37.4836 48.9097 35.587C47.3411 33.9012 45.5633 33.4797 40.5437 33.4797C34.06 33.4797 31.1319 34.9548 31.1319 38.1158C31.1319 40.1177 33.8509 40.0123 34.6875 38.0104C35.4195 35.9031 37.4064 36.0085 39.0796 38.2211C40.4391 40.0123 40.6483 40.0123 42.0077 38.2211C43.7855 35.9031 44.9358 35.9031 47.2365 38.6426C50.6875 42.8571 60.6221 39.2748 61.9816 33.4797C62.3999 31.1617 61.145 26.6311 57.1711 15.884C54.1385 7.98165 51.0012 1.23835 50.2692 0.922257C49.4326 0.606165 47.7594 1.34371 46.3999 2.60808C43.3672 5.55828 37.4064 5.55827 34.7921 2.71345C32.9097 0.606165 30.6091 -0.0260168 29.7724 1.34372Z" fill="#ffffff99"/>
    <path d="M34.2692 17.2443C34.2692 17.9639 34.9888 18.6835 35.7084 18.6835C36.5719 18.6835 37.1476 17.9639 37.1476 17.2443C37.1476 16.3808 36.5719 15.8051 35.7084 15.8051C34.9888 15.8051 34.2692 16.3808 34.2692 17.2443Z" fill="#ffffff99"/>
    <path d="M44.7267 17.2443C44.7267 17.9639 45.4463 18.6835 46.1659 18.6835C47.0295 18.6835 47.6051 17.9639 47.6051 17.2443C47.6051 16.3808 47.0295 15.8051 46.1659 15.8051C45.4463 15.8051 44.7267 16.3808 44.7267 17.2443Z" fill="#ffffff99"/>
</svg>
