<svg width="24" height="25" viewBox="0 0 24 25" fill="none" xmlns="http://www.w3.org/2000/svg">
    <path d="M11.8291 1.08078L11.8262 1.0816C10.7164 1.39604 9.6493 2.64413 9.37699 4.43488L9.37678 4.43621C9.28063 5.06283 9.37418 5.7344 9.60198 6.29012C9.83736 6.8643 10.1591 7.18755 10.4091 7.30034L10.4091 7.30032L10.4146 7.30284C10.7411 7.45254 11.304 7.46168 11.7783 7.25064C12.28 7.02261 12.9552 6.40526 13.2685 5.85613C14.377 3.90305 14.0645 2.09318 13.1157 1.30804L13.1155 1.30792C12.9037 1.13261 12.72 1.05164 12.5476 1.01895C12.3711 0.985479 12.1431 0.990793 11.8291 1.08078Z" fill="black" stroke="black" stroke-width="2"/>
    <path d="M16.3246 7.47883L16.3246 7.47884L16.3236 7.48066C16.0604 7.96959 15.9692 8.32899 15.9692 8.97437C15.9692 9.32409 15.9797 9.41304 15.9911 9.4631C15.998 9.49323 16.0108 9.54181 16.1422 9.78288L16.1423 9.78285L16.1473 9.79226C16.3521 10.1775 16.4991 10.2925 16.6175 10.35C16.767 10.4225 17.0437 10.4858 17.6593 10.452L17.6593 10.4519L17.666 10.4516C17.9935 10.4358 18.1294 10.4184 18.2492 10.3886C18.3779 10.3567 18.53 10.3003 18.8783 10.1489C19.1745 10.0186 19.3418 9.92874 19.4964 9.82257C19.6598 9.71041 19.8391 9.55952 20.1448 9.27519L20.1448 9.27517L20.15 9.2704C20.8233 8.65298 21.1434 8.19443 21.5197 7.28146L21.5203 7.27991C21.593 7.1044 21.6516 6.81409 21.6579 6.47566C21.6641 6.13979 21.617 5.85263 21.5536 5.67968C21.5047 5.55496 21.3804 5.36862 21.1913 5.19446C20.9941 5.01293 20.8285 4.93785 20.7666 4.92386L20.7666 4.92391L20.7569 4.92162C20.3407 4.82332 19.7391 4.84044 19.3097 4.96548C18.1645 5.30269 16.9588 6.29496 16.3246 7.47883Z" fill="black" stroke="black" stroke-width="2"/>
    <path d="M3.14724 10.826C3.53067 10.9598 4.23545 10.8205 4.72733 10.313C5.34381 9.67268 5.69842 8.78187 5.69842 7.74451C5.69842 5.83402 4.65498 4.93195 3.84731 4.94014L3.84731 4.94019H3.83718C3.75624 4.94019 3.63939 4.94823 3.51922 4.96374C3.46117 4.97123 3.40893 4.97962 3.36631 4.98784C3.3452 4.99191 3.32828 4.99558 3.31555 4.9986C3.31016 4.99989 3.30606 5.00092 3.30316 5.00168C2.81451 5.16913 2.14507 5.86171 1.80249 7.03831C1.75373 7.20865 1.70693 7.57678 1.69857 8.01567C1.69014 8.45836 1.72396 8.81252 1.7634 8.96289C1.87054 9.36044 2.10412 9.80711 2.40093 10.1827C2.71344 10.5781 2.99977 10.7749 3.14518 10.8253L3.14519 10.8253L3.14724 10.826Z" fill="black" stroke="black" stroke-width="2"/>
    <path d="M7.86587 12.9655L7.86488 12.9656C6.80823 13.113 5.4647 13.6286 4.06713 14.4907L4.06472 14.4922C3.29883 14.9616 2.56139 15.5296 1.9943 16.06C1.7108 16.3251 1.4819 16.5696 1.31688 16.777C1.2347 16.8802 1.17425 16.9669 1.13236 17.0359C1.1117 17.0699 1.09734 17.0967 1.08778 17.1164C1.08007 17.1323 1.07663 17.1412 1.07577 17.1435C0.858484 17.8174 1.11061 18.4266 1.83083 18.7568C2.29756 18.9708 2.90808 19.1283 4.19147 19.2975L4.194 19.2979C5.55335 19.4807 6.34741 19.6395 7.12325 19.924L7.12326 19.924L7.13068 19.9268C7.73907 20.1554 8.2346 20.3993 8.76437 20.8079C9.2687 21.1969 9.77747 21.7154 10.4416 22.4438L10.4445 22.447C10.7141 22.7451 10.9955 23.0383 11.2286 23.2674C11.3455 23.3823 11.4451 23.4761 11.5216 23.5441C11.5847 23.6003 11.6119 23.6207 11.6117 23.6211C11.6116 23.6211 11.6115 23.621 11.6113 23.6209C11.99 23.8614 12.4168 23.9857 12.7943 23.9988C13.1824 24.0123 13.4319 23.909 13.5524 23.807C13.7761 23.6161 14.0175 23.2362 14.1731 22.5703C14.3269 21.9124 14.378 21.0503 14.286 20.0079L14.2857 20.0044C14.0863 17.6514 13.7936 16.5603 13.1287 15.3046L13.1283 15.3037C12.6668 14.4301 12.1037 13.8848 11.3006 13.5003L11.3006 13.5003L11.2967 13.4984C10.3601 13.0449 8.89737 12.8205 7.86587 12.9655Z" fill="black" stroke="black" stroke-width="2"/>
    <path d="M18.546 14.496L18.5453 14.4967C17.6336 15.3399 17.4111 15.8473 17.371 16.4581C17.3478 16.8317 17.3753 17.0134 17.4102 17.1221C17.4393 17.213 17.494 17.3184 17.6634 17.4941C17.7717 17.6053 17.832 17.6493 17.8754 17.6754C17.9203 17.7024 17.9884 17.7351 18.1406 17.783C18.8661 17.9979 19.7642 17.8997 20.6388 17.4837C21.5107 17.069 22.2815 16.373 22.7445 15.5176C22.9387 15.1571 22.9649 15.0901 22.9777 15.0401C22.9898 14.993 23 14.9221 23 14.5169C23 14.3382 22.9982 14.2192 22.9935 14.1301C22.9888 14.0434 22.9824 14.0088 22.9799 13.9976C22.9799 13.9973 22.9798 13.997 22.9797 13.9967C22.9789 13.9929 22.978 13.9886 22.9701 13.9718C22.9571 13.9441 22.9336 13.9004 22.8784 13.8084C22.8423 13.7509 22.7825 13.6727 22.7127 13.5971C22.6785 13.5601 22.6476 13.5301 22.6232 13.5083C22.614 13.5001 22.607 13.4944 22.6024 13.4906C22.1959 13.2603 21.458 13.1434 20.7004 13.3045C19.9468 13.4749 19.2536 13.84 18.546 14.496Z" fill="black" stroke="black" stroke-width="2"/>
</svg>
